<svg width="20" height="20" viewBox="0 0 20 20" fill="none" xmlns="http://www.w3.org/2000/svg">
<g clip-path="url(#clip0_31_3823)">
<path d="M9.14172 1.66667H7.47506C3.30839 1.66667 1.64172 3.33334 1.64172 7.5V12.5C1.64172 16.6667 3.30839 18.3333 7.47506 18.3333H12.4751C16.6417 18.3333 18.3084 16.6667 18.3084 12.5V10.8333" stroke="currentColor" stroke-width="1.5" stroke-linecap="round" stroke-linejoin="round"/>
<path d="M18.2334 2.96667C17.2084 5.52501 14.6334 9.00834 12.4834 10.7333L11.1667 11.7833C11 11.9083 10.8334 12.0083 10.6417 12.0833C10.6417 11.9583 10.6334 11.8333 10.6167 11.7C10.5417 11.1417 10.2917 10.6167 9.8417 10.175C9.38337 9.71667 8.83337 9.45834 8.2667 9.38334C8.13337 9.37501 8.00003 9.36667 7.8667 9.37501C7.9417 9.16667 8.05003 8.97501 8.1917 8.81667L9.2417 7.50001C10.9667 5.35001 14.4584 2.75834 17.0084 1.73334C17.4 1.58334 17.7834 1.70001 18.025 1.94167C18.275 2.19167 18.3917 2.57501 18.2334 2.96667Z" stroke="currentColor" stroke-width="1.5" stroke-linecap="round" stroke-linejoin="round"/>
<path d="M10.65 12.075C10.65 12.8083 10.3667 13.5083 9.8417 14.0417C9.43337 14.45 8.88337 14.7333 8.22504 14.8167L6.58337 14.9917C5.6917 15.0917 4.92504 14.3333 5.02504 13.425L5.20004 11.7833C5.35837 10.325 6.57504 9.39167 7.87504 9.36667C8.00837 9.35834 8.1417 9.36667 8.27504 9.37501C8.8417 9.45001 9.3917 9.70834 9.85004 10.1667C10.3 10.6167 10.55 11.1333 10.625 11.6917C10.6417 11.825 10.65 11.9583 10.65 12.075Z" stroke="currentColor" stroke-width="1.5" stroke-linecap="round" stroke-linejoin="round"/>
<path d="M13.1834 9.98333C13.1834 8.24166 11.775 6.825 10.025 6.825" stroke="currentColor" stroke-width="1.5" stroke-linecap="round" stroke-linejoin="round"/>
</g>
<defs>
<clipPath id="clip0_31_3823">
<rect width="20" height="20" fill="currentColor"/>
</clipPath>
</defs>
</svg>
