<svg width="10" height="10" viewBox="0 0 10 10" fill="none" xmlns="http://www.w3.org/2000/svg">
<g clip-path="url(#clip0_17_3620)">
<path d="M5.26683 2.25833L0.979331 6.54583C0.821343 6.70411 0.721494 6.91115 0.695997 7.13333L0.525164 8.63333C0.514028 8.73881 0.525268 8.84546 0.558149 8.9463C0.591031 9.04715 0.644814 9.13992 0.715988 9.21856C0.787161 9.29721 0.874123 9.35995 0.971194 9.40271C1.06827 9.44546 1.17326 9.46725 1.27933 9.46666H1.36683L2.86683 9.29583C3.08813 9.27023 3.29471 9.17206 3.45433 9.01666L7.74183 4.725L5.26683 2.25833Z" fill="#A7AEA1"/>
<path d="M9.19183 1.89584L8.10433 0.808341C8.01336 0.717004 7.90524 0.644531 7.78619 0.59508C7.66714 0.545628 7.53949 0.520172 7.41058 0.520172C7.28167 0.520172 7.15402 0.545628 7.03497 0.59508C6.91592 0.644531 6.8078 0.717004 6.71683 0.808341L5.7085 1.81667L8.1835 4.29167L9.19183 3.28334C9.28317 3.19237 9.35564 3.08425 9.40509 2.9652C9.45454 2.84615 9.48 2.7185 9.48 2.58959C9.48 2.46068 9.45454 2.33303 9.40509 2.21398C9.35564 2.09493 9.28317 1.98682 9.19183 1.89584Z" fill="#A7AEA1"/>
</g>
<defs>
<clipPath id="clip0_17_3620">
<rect width="10" height="10" fill="white"/>
</clipPath>
</defs>
</svg>
