<svg width="20" height="20" viewBox="0 0 20 20" fill="none" xmlns="http://www.w3.org/2000/svg">
<g clip-path="url(#clip0_27_94)">
<path d="M0.416667 5.83332C0.186667 5.83332 0 5.64666 0 5.41666V3.74999C0 2.60166 0.934167 1.66666 2.08333 1.66666H3.75C3.98 1.66666 4.16667 1.85332 4.16667 2.08332C4.16667 2.31332 3.98 2.49999 3.75 2.49999H2.08333C1.39417 2.49999 0.833333 3.06082 0.833333 3.74999V5.41666C0.833333 5.64666 0.646667 5.83332 0.416667 5.83332Z" fill="#376EF8"/>
<path d="M19.5835 5.83332C19.3535 5.83332 19.1668 5.64666 19.1668 5.41666V3.74999C19.1668 3.06082 18.606 2.49999 17.9168 2.49999H16.2502C16.0202 2.49999 15.8335 2.31332 15.8335 2.08332C15.8335 1.85332 16.0202 1.66666 16.2502 1.66666H17.9168C19.066 1.66666 20.0002 2.60166 20.0002 3.74999V5.41666C20.0002 5.64666 19.8135 5.83332 19.5835 5.83332Z" fill="#376EF8"/>
<path d="M3.75 18.3333H2.08333C0.934167 18.3333 0 17.3983 0 16.25V14.5833C0 14.3533 0.186667 14.1667 0.416667 14.1667C0.646667 14.1667 0.833333 14.3533 0.833333 14.5833V16.25C0.833333 16.9392 1.39417 17.5 2.08333 17.5H3.75C3.98 17.5 4.16667 17.6867 4.16667 17.9167C4.16667 18.1467 3.98 18.3333 3.75 18.3333Z" fill="#376EF8"/>
<path d="M17.9168 18.3333H16.2502C16.0202 18.3333 15.8335 18.1467 15.8335 17.9167C15.8335 17.6867 16.0202 17.5 16.2502 17.5H17.9168C18.606 17.5 19.1668 16.9392 19.1668 16.25V14.5833C19.1668 14.3533 19.3535 14.1667 19.5835 14.1667C19.8135 14.1667 20.0002 14.3533 20.0002 14.5833V16.25C20.0002 17.3983 19.066 18.3333 17.9168 18.3333Z" fill="#376EF8"/>
<path d="M10.0002 15C6.78933 15 4.0535 12.985 3.346 10.0992C3.32933 10.0342 3.32933 9.96583 3.346 9.90083C4.0535 7.015 6.78933 5 10.0002 5C13.211 5 15.9468 7.015 16.6543 9.90083C16.671 9.96583 16.671 10.0342 16.6543 10.0992C15.9468 12.985 13.211 15 10.0002 15ZM4.18016 10C4.83516 12.4583 7.21266 14.1667 10.0002 14.1667C12.7877 14.1667 15.1652 12.4583 15.8202 10C15.1652 7.54167 12.7885 5.83333 10.0002 5.83333C7.21183 5.83333 4.83516 7.54167 4.18016 10Z" fill="#376EF8"/>
<path d="M10 12.5C8.62167 12.5 7.5 11.3783 7.5 10C7.5 8.62167 8.62167 7.5 10 7.5C11.3783 7.5 12.5 8.62167 12.5 10C12.5 11.3783 11.3783 12.5 10 12.5ZM10 8.33333C9.08083 8.33333 8.33333 9.08083 8.33333 10C8.33333 10.9192 9.08083 11.6667 10 11.6667C10.9192 11.6667 11.6667 10.9192 11.6667 10C11.6667 9.08083 10.9192 8.33333 10 8.33333Z" fill="#376EF8"/>
</g>
<defs>
<clipPath id="clip0_27_94">
<rect width="20" height="20" fill="white"/>
</clipPath>
</defs>
</svg>
