<svg width="12" height="12" viewBox="0 0 12 12" fill="none" xmlns="http://www.w3.org/2000/svg">
<path d="M9.57895 2.24997H7.68421V2.04165C7.68421 1.46728 7.212 1 6.63158 1H5.36842C4.788 1 4.31579 1.46728 4.31579 2.04165V2.24997H2.42105C2.18863 2.24997 2 2.43664 2 2.66663V3.29162C2 3.52161 2.18863 3.70828 2.42105 3.70828H9.57895C9.81137 3.70828 10 3.52161 10 3.29162V2.66663C10 2.43664 9.81137 2.24997 9.57895 2.24997ZM5.15789 2.04165C5.15789 1.92686 5.25242 1.83332 5.36842 1.83332H6.63158C6.74758 1.83332 6.84211 1.92686 6.84211 2.04165V2.24997H5.15789V2.04165Z" fill="#A7AEA1"/>
<path d="M9.42732 4.26139C9.34753 4.17452 9.23427 4.12494 9.11574 4.12494H2.88417C2.76564 4.12494 2.65238 4.17452 2.57259 4.26139C2.4928 4.34826 2.45385 4.46451 2.46501 4.58138L2.98248 9.93294C3.04122 10.5413 3.58206 11 4.24059 11H7.75932C8.41764 11 8.95869 10.5413 9.01743 9.93294L9.5349 4.58138C9.54627 4.46451 9.50711 4.34826 9.42732 4.26139ZM5.01595 9.95731C5.0069 9.95773 4.99806 9.95815 4.98901 9.95815C4.76859 9.95815 4.58332 9.78857 4.56922 9.56774L4.31659 5.60949C4.30206 5.37991 4.47827 5.182 4.71027 5.16741C4.9429 5.15491 5.14248 5.32741 5.15701 5.55699L5.40964 9.51524C5.42416 9.74482 5.24795 9.94273 5.01595 9.95731ZM7.43069 9.56774C7.41659 9.78857 7.23132 9.95815 7.0109 9.95815C7.00206 9.95815 6.99301 9.95794 6.98395 9.95731C6.75174 9.94273 6.57574 9.74482 6.59027 9.51524L6.8429 5.55699C6.85764 5.3272 7.05659 5.1545 7.28964 5.16741C7.52185 5.182 7.69785 5.37991 7.68332 5.60949L7.43069 9.56774Z" fill="#A7AEA1"/>
</svg>
