<svg width="20" height="20" viewBox="0 0 20 20" fill="none" xmlns="http://www.w3.org/2000/svg">
<path d="M14.5918 18.0408H4.5102C3.8204 18.0408 3.1306 17.6694 2.75918 17.0857C2.33469 16.502 2.28162 15.7592 2.54693 15.0694C3.60816 12.3633 6.4204 10.5592 9.55101 10.5592C12.6816 10.5592 15.4939 12.3633 16.5551 15.0694C16.8204 15.7061 16.7673 16.502 16.3428 17.0857C15.9714 17.6694 15.2816 18.0408 14.5918 18.0408ZM9.55101 9.55102C7.21632 9.55102 5.30611 7.64082 5.30611 5.30612C5.30611 2.97143 7.21632 1.06123 9.55101 1.06123C11.8857 1.06123 13.7959 2.97143 13.7959 5.30612C13.7959 7.64082 11.8857 9.55102 9.55101 9.55102Z" fill="white"/>
</svg>
