<svg width="20" height="20" viewBox="0 0 20 20" fill="none" xmlns="http://www.w3.org/2000/svg">
<path d="M9.54992 11.4416C10.8432 11.4416 11.8916 10.3932 11.8916 9.09998C11.8916 7.80671 10.8432 6.75832 9.54992 6.75832C8.25665 6.75832 7.20825 7.80671 7.20825 9.09998C7.20825 10.3932 8.25665 11.4416 9.54992 11.4416Z" stroke="currentColor" stroke-width="1.5" stroke-linecap="round" stroke-linejoin="round"/>
<path d="M13.875 16.8333C13.875 14.8917 11.9416 13.3083 9.54997 13.3083C7.15831 13.3083 5.22498 14.8833 5.22498 16.8333" stroke="currentColor" stroke-width="1.5" stroke-linecap="round" stroke-linejoin="round"/>
<path d="M17.5 10.4167C17.5 14.7917 13.9583 18.3333 9.58329 18.3333C5.20829 18.3333 1.66663 14.7917 1.66663 10.4167C1.66663 6.04167 5.20829 2.5 9.58329 2.5C10.675 2.5 11.7166 2.71666 12.6666 3.11666C12.5583 3.44999 12.5 3.8 12.5 4.16667C12.5 4.79167 12.675 5.38333 12.9833 5.88333C13.15 6.16667 13.3666 6.42498 13.6166 6.64164C14.2 7.17498 14.975 7.5 15.8333 7.5C16.2 7.5 16.55 7.44165 16.875 7.32498C17.275 8.27498 17.5 9.325 17.5 10.4167Z" stroke="currentColor" stroke-width="1.5" stroke-linecap="round" stroke-linejoin="round"/>
<path d="M19.1667 4.16666C19.1667 4.43333 19.1333 4.69166 19.0667 4.94166C18.9917 5.27499 18.8583 5.59999 18.6833 5.88333C18.2833 6.55833 17.6417 7.08331 16.875 7.32498C16.55 7.44164 16.2 7.49999 15.8333 7.49999C14.975 7.49999 14.2 7.17497 13.6167 6.64164C13.3667 6.42497 13.15 6.16666 12.9833 5.88333C12.675 5.38333 12.5 4.79166 12.5 4.16666C12.5 3.79999 12.5583 3.44999 12.6667 3.11665C12.825 2.63332 13.0917 2.20001 13.4417 1.84168C14.05 1.21668 14.9 0.833328 15.8333 0.833328C16.8167 0.833328 17.7083 1.25834 18.3083 1.94168C18.8417 2.53334 19.1667 3.31666 19.1667 4.16666Z" stroke="currentColor" stroke-width="1.5" stroke-miterlimit="10" stroke-linecap="round" stroke-linejoin="round"/>
<path d="M17.075 4.14998H14.5917" stroke="currentColor" stroke-width="1.5" stroke-miterlimit="10" stroke-linecap="round" stroke-linejoin="round"/>
<path d="M15.8334 2.93335V5.42501" stroke="currentColor" stroke-width="1.5" stroke-miterlimit="10" stroke-linecap="round" stroke-linejoin="round"/>
</svg>
